<?xml version="1.0" standalone="no"?>
<!DOCTYPE svg PUBLIC "-//W3C//DTD SVG 20010904//EN"
 "http://www.w3.org/TR/2001/REC-SVG-20010904/DTD/svg10.dtd">
<svg version="1.0" xmlns="http://www.w3.org/2000/svg"
 width="512.000000pt" height="512.000000pt" viewBox="0 0 512.000000 512.000000"
 preserveAspectRatio="xMidYMid meet">
<metadata>
Created by potrace 1.11, written by Peter Selinger 2001-2013
</metadata>
<g transform="translate(0.000000,512.000000) scale(0.100000,-0.100000)"
fill="#000000" stroke="none">
<path d="M1735 4520 c-85 -41 -361 -152 -610 -245 -165 -62 -307 -118 -372
-146 -23 -11 -45 -19 -48 -19 -25 0 -347 -163 -461 -233 -100 -62 -204 -135
-204 -143 0 -3 25 -60 56 -127 65 -141 197 -445 259 -597 79 -192 133 -322
138 -326 3 -3 151 54 331 126 179 71 328 130 330 130 1 0 4 -480 5 -1067 1
-588 2 -1125 3 -1195 l0 -128 207 -1 c531 -4 2507 -5 2518 -1 13 4 14 19 17
1459 1 513 4 934 6 936 3 2 82 -30 176 -72 95 -42 187 -83 205 -90 19 -8 82
-36 141 -62 l108 -47 56 105 c74 137 165 339 247 543 68 171 188 493 184 496
-4 3 -426 184 -612 261 -99 41 -199 84 -222 94 -23 10 -48 19 -55 19 -8 0 -18
4 -24 9 -8 8 -499 206 -734 296 -52 20 -104 40 -115 45 -45 20 -53 15 -114
-66 -114 -153 -247 -274 -366 -332 -53 -26 -74 -33 -135 -49 -35 -9 -154 -10
-193 -1 -23 5 -58 11 -77 14 -139 21 -240 95 -405 298 -103 127 -131 156 -147
155 -7 0 -49 -18 -93 -39z"/>
</g>
</svg>
